#!OML:ASF \\sashay\E\basketball\basketball\Project 1\Capture day 1\Session 1\Subject.ASF
:FULLY-SPECIFIED
:DEGREES
71
root 4.10945 15.579 8.26371 19.5204 54.3953 21.1785
lowerback 11.411 4.29363 -7.98666
upperback 8.23621 5.25437 -0.826158
thorax 1.70388 2.45676 3.06285
lowerneck 1.32289 -8.4276 -14.6428
upperneck -14.0241 -9.76275 21.5642
head -2.28852 -5.13473 9.29961
rclavicle -2.38542e-015 -1.90833e-014
rhumerus -34.4976 -17.501 -66.7601
rradius 43.9752
rwrist -1.26427
rhand -36.4043 57.3807
rfingers 7.12502
rthumb -9.49987 27.6148
lclavicle -2.38542e-015 -1.90833e-014
lhumerus -40.3311 23.1219 54.7118
lradius 94.2084
lwrist 38.4034
lhand 0.285456 30.6564
lfingers 7.12502
lthumb 25.8638 58.9176
rfemur -37.9217 -10.6675 20.1879
rtibia 87.5314
rfoot -12.798 -9.7513
rtoes -9.0081
lfemur -1.73236 5.73726 -20.2591
ltibia 40.8988
lfoot 0.502843 -11.3858
ltoes -42.9775
72
root 4.58432 15.6538 8.62486 19.7865 54.4382 21.7581
lowerback 11.202 4.08769 -8.20156
upperback 8.1973 4.98198 -0.805115
thorax 1.78972 2.30812 3.24869
lowerneck 0.992144 -8.35139 -14.4093
upperneck -13.4195 -9.70744 21.3058
head -2.10285 -5.08414 9.13063
rclavicle 8.90555e-014 0
rhumerus -35.3677 -17.5499 -66.2096
rradius 44.4972
rwrist -1.24727
rhand -36.6802 56.969
rfingers 7.12502
rthumb -9.76608 27.2155
lclavicle 8.90555e-014 0
lhumerus -40.9656 22.3208 52.6701
lradius 91.8556
lwrist 38.1476
lhand 3.12231 31.0789
lfingers 7.12502
lthumb 28.5774 58.9145
rfemur -38.9854 -11.5331 19.6838
rtibia 84.3852
rfoot -12.7621 -9.71041
rtoes -11.4558
lfemur 1.17852 5.43505 -20.0278
ltibia 38.6422
lfoot 5.45875 -11.4381
ltoes -40.0844
73
root 5.06447 15.7263 8.9902 19.9166 54.6195 22.0529
lowerback 10.8724 3.7776 -8.28095
upperback 8.08891 4.58557 -0.644736
thorax 1.87942 2.09797 3.52275
lowerneck 1.20162 -7.70848 -15.1702
upperneck -12.4973 -9.00909 21.3138
head -1.96614 -4.70732 9.27048
rclavicle -2.98177e-014 1.59028e-014
rhumerus -36.1043 -16.9429 -65.7243
rradius 45.0092
rwrist -1.48066
rhand -37.0049 56.8034
rfingers 7.12502
rthumb -10.0794 27.0648
lclavicle -2.98177e-014 1.59028e-014
lhumerus -41.8085 21.4897 50.8676
lradius 89.5149
lwrist 39.2862
lhand 5.13997 31.5807
lfingers 7.12502
lthumb 30.5035 59.0757
rfemur -39.8955 -12.33 19.4018
rtibia 80.881
rfoot -12.6811 -9.50239
rtoes -12.3784
lfemur 3.98586 4.91011 -19.6156
ltibia 36.2437
lfoot 10.1606 -11.0936
ltoes -36.5796
74
root 5.55581 15.7961 9.35642 19.8927 54.8021 22.1615
lowerback 10.3856 3.48998 -8.0101
upperback 8.04165 4.26824 -0.609355
thorax 2.14071 1.93731 3.47243
lowerneck 0.500836 -7.48615 -15.5674
upperneck -11.2108 -8.75871 21.8538
head -1.4717 -4.53536 9.44572
rclavicle 4.09496e-014 -1.90833e-014
rhumerus -36.7388 -16.3358 -65.5581
rradius 45.5994
rwrist -2.01625
rhand -37.1773 56.5842
rfingers 7.12502
rthumb -10.2457 26.8537
lclavicle 4.09496e-014 -1.90833e-014
lhumerus -42.1623 20.541 49.2432
lradius 87.1141
lwrist 41.6203
lhand 5.9248 32.47
lfingers 7.12502
lthumb 31.2517 59.8232
rfemur -40.4853 -12.9876 19.1348
rtibia 76.9908
rfoot -12.6272 -8.91446
rtoes -10.7453
lfemur 6.83656 4.20648 -19.1864
ltibia 33.9709
lfoot 13.2186 -10.5099
ltoes -34.3538
75
root 6.05014 15.8687 9.7203 19.8109 54.9639 22.1741
lowerback 9.83742 3.22855 -7.60345
upperback 8.01703 3.99966 -0.626499
thorax 2.46287 1.80602 3.28655
lowerneck 0.126659 -7.30086 -15.0521
upperneck -10.4162 -8.62399 20.7049
head -1.31323 -4.42398 8.93373
rclavicle -3.61788e-014 1.11319e-014
rhumerus -37.2224 -15.7085 -65.6599
rradius 46.4026
rwrist -2.82717
rhand -37.6104 55.961
rfingers 7.12502
rthumb -10.6635 26.2516
lclavicle -3.61788e-014 1.11319e-014
lhumerus -42.2086 19.8615 47.7175
lradius 84.7467
lwrist 44.2247
lhand 4.2861 32.5328
lfingers 7.12502
lthumb 29.6888 60.1759
rfemur -40.9835 -13.8627 19.0945
rtibia 72.8555
rfoot -11.9461 -8.95673
rtoes -17.3479
lfemur 9.73231 3.39704 -18.84
ltibia 31.8527
lfoot 14.112 -9.95276
ltoes -34.0237
76
root 6.53983 15.9237 10.0782 19.4889 55.1595 21.8243
lowerback 9.13946 2.88723 -7.09348
upperback 8.02696 3.63661 -0.479359
thorax 2.90563 1.62259 3.22587
lowerneck 0.173453 -6.99417 -15.7013
upperneck -10.1424 -8.19939 21.6449
head -1.23106 -4.21583 9.3754
rclavicle 7.4743e-014 -3.18055e-015
rhumerus -37.4403 -14.5727 -65.847
rradius 47.4685
rwrist -4.24888
rhand -38.2441 55.1936
rfingers 7.12502
rthumb -11.2747 25.5166
lclavicle 7.4743e-014 -3.18055e-015
lhumerus -42.5318 19.9753 46.1973
lradius 82.5156
lwrist 46.2795
lhand 4.90275 33.1011
lfingers 7.12502
lthumb 30.2772 60.6378
rfemur -41.1233 -14.1364 18.997
rtibia 68.437
rfoot -12.2849 -8.04848
rtoes -14.1543
lfemur 12.5256 2.60008 -18.4129
ltibia 30.0859
lfoot 13.4553 -9.4954
ltoes -40.3677
77
root 7.03303 16.0015 10.4443 19.083 55.3042 21.2949
lowerback 8.97821 2.5935 -6.58123
upperback 7.45429 3.23508 -0.267912
thorax 2.43178 1.45323 3.18337
lowerneck 1.0267 -6.62769 -15.7497
upperneck -9.45866 -7.94268 21.0426
head -1.27274 -4.11028 9.20822
rclavicle 1.59028e-014 -7.95139e-015
rhumerus -38.6584 -12.6434 -65.8187
rradius 48.9697
rwrist -6.03912
rhand -38.441 54.6082
rfingers 7.12502
rthumb -11.4646 24.9417
lclavicle 1.59028e-014 -7.95139e-015
lhumerus -43.7869 19.9272 44.3172
lradius 80.4376
lwrist 48.0668
lhand 7.78716 33.6031
lfingers 7.12502
lthumb 33.0246 60.5981
rfemur -41.3159 -14.2289 18.9209
rtibia 64.0251
rfoot -12.5833 -7.08651
rtoes -8.98454
lfemur 15.3247 2.20562 -17.9257
ltibia 28.5051
lfoot 12.5673 -1.63721
ltoes -43.9423
78
root 7.51881 16.0497 10.8083 19.0444 55.3052 21.0456
lowerback 8.36344 2.63572 -5.71998
upperback 7.34134 3.38174 -0.619449
thorax 2.68897 1.56085 2.35396
lowerneck -0.176268 -7.28524 -14.1593
upperneck -8.82583 -8.76332 20.3451
head -0.854875 -4.47636 8.58654
rclavicle -1.11319e-014 -4.77083e-015
rhumerus -39.5792 -12.5712 -66.2624
rradius 50.5946
rwrist -7.30794
rhand -38.2648 54.2203
rfingers 7.12502
rthumb -11.2946 24.5444
lclavicle -1.11319e-014 -4.77083e-015
lhumerus -43.0216 19.7831 42.7752
lradius 78.3177
lwrist 50.1657
lhand 9.27647 35.7517
lfingers 7.12502
lthumb 34.4398 62.4367
rfemur -41.5641 -14.26 18.7288
rtibia 59.5204
rfoot -12.2348 -6.85522
rtoes -9.92997
lfemur 17.9067 2.35983 -17.4524
ltibia 27.1264
lfoot 11.7083 6.86386
ltoes -42.8868
79
root 7.99998 16.0905 11.1782 19.3726 55.2144 21.1723
lowerback 7.59575 2.35599 -5.95936
upperback 7.02189 3.0164 -0.322966
thorax 2.77903 1.35503 2.84381
lowerneck -0.672455 -7.36294 -14.4961
upperneck -8.19088 -8.90279 20.4313
head -0.54469 -4.50497 8.62347
rclavicle 1.82882e-014 -1.27222e-014
rhumerus -39.9902 -10.532 -66.1277
rradius 51.9979
rwrist -8.26197
rhand -38.0353 54.0127
rfingers 7.12502
rthumb -11.0733 24.3248
lclavicle 1.82882e-014 -1.27222e-014
lhumerus -44.5785 20.4562 41.3832
lradius 77.1685
lwrist 52.9213
lhand 10.3935 36.9367
lfingers 7.12502
lthumb 35.4994 63.3746
rfemur -41.7741 -14.0703 18.2311
rtibia 55.0519
rfoot -11.4843 -6.98318
rtoes -11.4458
lfemur 20.3263 2.61102 -17.0508
ltibia 25.6605
lfoot 10.2011 13.7914
ltoes -36.1049
80
root 8.48048 16.1232 11.5518 19.8241 55.0324 21.5112
lowerback 6.85057 2.20792 -6.26278
upperback 6.85391 2.84232 -0.24274
thorax 3.01583 1.2445 3.13235
lowerneck -0.401671 -7.10734 -14.8592
upperneck -8.03792 -8.61027 20.4691
head -0.580803 -4.3631 8.7221
rclavicle 1.55052e-014 9.54166e-015
rhumerus -40.1006 -9.09757 -66.2662
rradius 53.1716
rwrist -8.68151
rhand -38.0675 53.9781
rfingers 7.12502
rthumb -11.1044 24.2918
lclavicle 1.55052e-014 9.54166e-015
lhumerus -45.6369 20.901 40.2094
lradius 76.4462
lwrist 55.8125
lhand 10.3404 37.473
lfingers 7.12502
lthumb 35.4491 63.923
rfemur -41.7871 -13.6493 17.4602
rtibia 50.6375
rfoot -10.4469 -7.25017
rtoes -14.2161
lfemur 22.639 2.72882 -16.7482
ltibia 24.3122
lfoot 9.75597 16.3957
ltoes -29.5253
81
root 8.95552 16.1425 11.9266 20.4563 54.759 22.1526
lowerback 6.15864 2.1497 -6.69537
upperback 6.78743 2.79697 -0.3255
thorax 3.32518 1.19463 3.31553
lowerneck -0.22657 -6.81877 -15.0075
upperneck -7.59264 -8.3215 19.9625
head -0.562734 -4.21058 8.59125
rclavicle -2.10712e-014 1.59028e-015
rhumerus -40.1295 -7.85689 -66.6688
rradius 54.4784
rwrist -8.93282
rhand -38.3679 53.9434
rfingers 7.12502
rthumb -11.3941 24.273
lclavicle -2.10712e-014 1.59028e-015
lhumerus -46.4383 21.1982 39.3166
lradius 76.2376
lwrist 57.8772
lhand 9.98288 38.2754
lfingers 7.12502
lthumb 35.1101 64.8057
rfemur -41.6435 -13.1533 16.3963
rtibia 46.3507
rfoot -9.29813 -7.26479
rtoes -17.7879
lfemur 24.8783 2.74237 -16.6627
ltibia 23.1527
lfoot 10.8702 15.9523
ltoes -29.1679
82
root 9.42069 16.1469 12.3025 21.2504 54.4331 23.0933
lowerback 5.56896 2.17812 -7.22795
upperback 6.79321 2.8759 -0.583317
thorax 3.6485 1.2062 3.36467
lowerneck -1.17888 -7.31072 -14.0501
upperneck -7.32029 -8.91037 19.6763
head -0.2828 -4.46844 8.25424
rclavicle -1.19271e-015 7.95139e-015
rhumerus -40.201 -6.94687 -67.2309
rradius 55.8946
rwrist -9.05472
rhand -38.7019 54.0434
rfingers 7.12502
rthumb -11.7162 24.3911
lclavicle -1.19271e-015 7.95139e-015
lhumerus -46.827 21.3266 38.7357
lradius 76.3744
lwrist 58.714
lhand 10.1112 39.0945
lfingers 7.12502
lthumb 35.2318 65.5961
rfemur -41.4005 -12.5614 15.0297
rtibia 42.3207
rfoot -7.91268 -7.40496
rtoes -20.7942
lfemur 26.8776 2.71639 -16.7783
ltibia 22.4743
lfoot 11.6056 14.0642
ltoes -31.9642
83
root 9.87321 16.1353 12.6802 21.9994 53.9786 24.0242
lowerback 5.09265 2.27527 -8.00967
upperback 6.78386 3.03643 -0.769623
thorax 3.8728 1.24857 3.61948
lowerneck -1.3269 -7.35896 -13.8082
upperneck -7.25844 -8.97507 19.403
head -0.258515 -4.49341 8.11317
rclavicle 6.83819e-014 -1.43125e-014
rhumerus -40.0569 -6.07852 -67.7086
rradius 57.0986
rwrist -9.10816
rhand -39.1586 54.2621
rfingers 7.12502
rthumb -12.1566 24.6353
lclavicle 6.83819e-014 -1.43125e-014
lhumerus -47.208 21.5997 38.5718
lradius 76.7849
lwrist 58.4093
lhand 10.2621 39.4345
lfingers 7.12502
lthumb 35.3749 65.9022
rfemur -41.1693 -11.3042 13.376
rtibia 38.6552
rfoot -6.78949 -8.20727
rtoes -22.7919
lfemur 28.4605 2.79924 -16.9396
ltibia 22.5496
lfoot 11.9975 12.1002
ltoes -34.7123
